<svg width="96" height="96" xmlns="http://www.w3.org/2000/svg" xmlns:xlink="http://www.w3.org/1999/xlink" overflow="hidden"><defs><clipPath id="clip0"><rect x="0" y="0" width="96" height="96"/></clipPath></defs><g clip-path="url(#clip0)"><path d="M72.02 68 60.02 68 48.505 6.62C48.4543 6.3486 48.1931 6.1696 47.9217 6.2203 47.7187 6.2582 47.5599 6.417 47.522 6.62L36.01 68 24.01 68 48.013 92ZM28.836 70 37.67 70 37.976 68.369 48 14.9C48.0017 14.8948 48.0074 14.8919 48.0126 14.8936 48.0156 14.8946 48.018 14.897 48.019 14.9L58.051 68.372 58.357 70 67.23 70C60 77.309 51.319 86.045 48.063 89.226Z" stroke="#70AD47" stroke-width="1.33333" fill="#70AD47"/></g></svg>