<svg width="96" height="96" xmlns="http://www.w3.org/2000/svg" xmlns:xlink="http://www.w3.org/1999/xlink" overflow="hidden"><defs><clipPath id="clip0"><rect x="0" y="0" width="96" height="96"/></clipPath></defs><g clip-path="url(#clip0)"><path d="M23.98 28 35.98 28 47.495 89.38C47.5457 89.6514 47.8069 89.8304 48.0783 89.7797 48.2813 89.7418 48.4401 89.583 48.478 89.38L59.99 28 71.99 28 47.987 4ZM67.164 26 58.33 26 58.024 27.631 48 81.1C47.9983 81.1052 47.9926 81.1081 47.9874 81.1064 47.9844 81.1054 47.982 81.103 47.981 81.1L37.949 27.628 37.643 26 28.77 26C36 18.691 44.681 9.955 47.937 6.774Z" stroke="#70AD47" stroke-width="1.33333" fill="#70AD47"/></g></svg>